<svg width="32" height="32" viewBox="0 0 32 32" fill="none" xmlns="http://www.w3.org/2000/svg">
<rect width="32" height="32" rx="3" fill="white"/>
<path d="M4.9375 25V10.4545H8.88636V21.8182H14.767V25H4.9375ZM16.4201 25V14.0909H20.2269V16.1648H20.3406C20.5394 15.3977 20.8543 14.8366 21.2852 14.4815C21.7208 14.1264 22.2298 13.9489 22.8121 13.9489C22.9826 13.9489 23.1507 13.9631 23.3164 13.9915C23.4869 14.0152 23.6502 14.0507 23.8065 14.098V17.4432C23.6123 17.3769 23.3732 17.3272 23.0891 17.294C22.805 17.2609 22.5612 17.2443 22.3576 17.2443C21.9741 17.2443 21.6284 17.3319 21.3207 17.5071C21.0176 17.6776 20.7785 17.919 20.6033 18.2315C20.4281 18.5393 20.3406 18.9015 20.3406 19.3182V25H16.4201Z" fill="black"/>
<rect x="24" y="21" width="4" height="4" rx="1" fill="black"/>
</svg>
