<svg xmlns="http://www.w3.org/2000/svg" width="32" height="32" viewBox="0 0 32 32" fill="none">
  <path fill-rule="evenodd" clip-rule="evenodd" d="M14 3H13V6H19V3H18V5H14V3Z" fill="white"/>
  <path fill-rule="evenodd" clip-rule="evenodd" d="M14.19 1.5C13.528 1.5 13 2.044 13 2.7V3.5H14V2.7C14 2.584 14.092 2.5 14.19 2.5H17.81C17.908 2.5 18 2.584 18 2.7V3.5H19V2.7C19 2.044 18.472 1.5 17.81 1.5H14.19ZM12 30.1C11.45 30.1 11 29.65 11 29.1V28H13V29.1C13 29.65 12.56 30.1 12 30.1ZM20 30.1C19.45 30.1 19 29.65 19 29.1V28H21V29.1C21 29.65 20.56 30.1 20 30.1Z" fill="white"/>
  <path d="M21.72 28.4699H10.28C8.469 28.4699 7 27.0099 7 25.2109V8.72995C7 6.92995 8.469 5.47095 10.28 5.47095H21.72C23.531 5.47095 25 6.93095 25 8.72995V25.1999C24.9999 25.6301 24.9149 26.0561 24.7498 26.4533C24.5848 26.8506 24.343 27.2114 24.0384 27.5151C23.7337 27.8188 23.372 28.0593 22.9742 28.223C22.5764 28.3867 22.1502 28.4713 21.72 28.4699Z" fill="white"/>
  <path fill-rule="evenodd" clip-rule="evenodd" d="M11 27C10.45 27 10 26.55 10 26V9C10 8.45 10.45 8 11 8C11.55 8 12 8.45 12 9V26C12 26.55 11.56 27 11 27ZM16 27C15.45 27 15 26.55 15 26V9C15 8.45 15.45 8 16 8C16.55 8 17 8.45 17 9V26C17 26.55 16.56 27 16 27ZM20 26C20 26.55 20.45 27 21 27C21.56 27 22 26.55 22 26V9C22 8.45 21.55 8 21 8C20.45 8 20 8.45 20 9V26Z" fill="black"/>
  <path d="M20.81 10.77L19.07 12.51C18.83 12.75 18.45 12.75 18.22 12.51L14.75 9.04002C14.6928 8.98498 14.6473 8.91897 14.6163 8.84594C14.5852 8.77292 14.5692 8.69438 14.5692 8.61502C14.5692 8.53566 14.5852 8.45712 14.6163 8.3841C14.6473 8.31107 14.6928 8.24506 14.75 8.19002L16.49 6.45002C16.73 6.21002 17.11 6.21002 17.34 6.45002L20.81 9.92002C21.04 10.15 21.04 10.53 20.81 10.77Z" fill="black"/>
</svg>